<svg id="Layer_1" data-name="Layer 1" xmlns="http://www.w3.org/2000/svg" viewBox="0 0 65.8 65.8"><defs><style>.cls-1{fill:#35283a;}</style></defs><path class="cls-1" d="M562.75,1184.66a32.9,32.9,0,1,0,32.9,32.9A32.9,32.9,0,0,0,562.75,1184.66Zm-5.07,59.67a31,31,0,0,1-17.8-5.59h0c.35.38.7.74,1.06,1.09-.36-.35-.71-.71-1.06-1.09h0A31.16,31.16,0,0,1,580.57,1192l0,0,.18.13c.43.3.85.61,1.27.94-.42-.33-.84-.64-1.27-.94l-.16-.11a31.16,31.16,0,0,1-22.89,52.33Z" transform="translate(-529.85 -1184.66)"/></svg>