<svg id="Layer_1" data-name="Layer 1" xmlns="http://www.w3.org/2000/svg" viewBox="0 0 58.8 59.81"><defs><style>.cls-1{fill:#eadab2;}</style></defs><path class="cls-1" d="M554.74,1215c.67-4.42.57-7.32,4.06-13C554.34,1202.15,550.28,1209.55,554.74,1215Zm15.3,20.14c4.12,1.7,10.82-3.43,9-10.25C576.6,1228.7,575.52,1231.4,570,1235.18Zm-2.17-36.27a2.79,2.79,0,1,0,2.79,2.79A2.79,2.79,0,0,0,567.87,1198.91Zm-5.12-10.24a29.28,29.28,0,0,0-19.72,7.6c-4.38-4-9.27-8.45-9.27-8.61v.6a119.35,119.35,0,0,0,6.12,11.35,29.39,29.39,0,1,0,22.87-10.94Zm0,53.22a23.82,23.82,0,0,1-19.62-37.33c.31.45.64.9,1,1.34a28.49,28.49,0,0,0-.21,15.21c2.08,7.32,10.55,12.77,20.48,12.47s12.81-10.95,12.8-15.92c0-5.18-3.27-11.15-11.18-11.55s-10.74,6.28-9.42,11.45c1.18,4.65,5.57,6,9,5.38,4.66-.82,3.34-6.7,3.34-6.7s.56-1.73.71-1.2c2.36,8.22-3.66,11-7.4,11.55-5,.71-10.74-2.74-12.47-9.74-1.07-4.37,0-14.49,0-14.49l-2.58-2.33a23.82,23.82,0,1,1,15.56,41.86Z" transform="translate(-533.35 -1187.66)"/></svg>