<svg id="Layer_1" data-name="Layer 1" xmlns="http://www.w3.org/2000/svg" viewBox="0 0 81.26 81.65"><defs><style>.cls-1{fill:#5d89c6;}</style></defs><path class="cls-1" d="M579.9,1228.58c7.54,6.8,25.75-4.21,26.48-19.53.74-15.53-14-23.67-27.22-23.82-15.38-.17-29.73,6.66-31.51,30.18s15.24,39.2,31.81,39.09,25.61-10.56,25.14-12.31c-8.28,3.1-13.61,3.84-19.23,2.66-4.22-.89-18.64-6.81-19.38-18.94-.81-13.35,3.7-19.52,12.87-19.82,6.53-.21,11.78,6.79,11.54,11.1C590.09,1222.81,588.48,1224.88,579.9,1228.58Zm-37-18.64s3.86-13.8,9.27-19c7.67-7.29,12.52-10,7.89-12.56-5-2.81-14,1.65-17.16,6.8C536.56,1195.44,542,1211.57,542.92,1209.94Zm4,27.36c-9-15.08-6.95-27.21-10.2-35.35s-18.33-3.43-8,21.89c11.83,29,40.26,35.67,41.42,35.36C570.14,1259.2,553.86,1248.92,546.91,1237.3Z" transform="translate(-525.15 -1177.56)"/></svg>