<svg id="Layer_1" data-name="Layer 1" xmlns="http://www.w3.org/2000/svg" viewBox="0 0 114.83 45.62"><defs><style>.cls-1{fill:#c8bbab;}</style></defs><path class="cls-1" d="M52.17,52.25a11.55,11.55,0,0,0,.72-4.15,8.31,8.31,0,0,0-.49-2.66,11.38,11.38,0,0,0-1.32-2.66,10.32,10.32,0,0,0-1.95-2.2,5.94,5.94,0,0,0-2.47-1.26,11,11,0,0,0-1.7-.24c-.67,0-1.2-.08-1.62-.08s-1.12,0-1.78.1-1.32.15-2,.25l-2,.32L35.87,40l-.19,0a1.19,1.19,0,0,1-.49-.1,2.57,2.57,0,0,0-.86-.16,2.22,2.22,0,0,0-.51.06,5,5,0,0,1-.52,0,5.71,5.71,0,0,0-.83.11,2.58,2.58,0,0,0-.87.36A1.27,1.27,0,0,0,31,41.41v.34l.18.19a1.09,1.09,0,0,0,.35.21l.12.06.14.06H32l.18.68c.06.25.13.48.19.7a3.09,3.09,0,0,0,.18.48c0,.06,0,.14.08.24a3.83,3.83,0,0,1,.11.43c0,.15.07.34.12.56a.81.81,0,0,0-.11.39,1.36,1.36,0,0,0,.08.41,1.48,1.48,0,0,0,.11.27.59.59,0,0,0,0,.23v.61a6.7,6.7,0,0,0,.06.81c0,.42.07.67.1.82l0,.09-.06.11a1,1,0,0,0-.12.43,2,2,0,0,0,.09.53l0,.18v0a1.2,1.2,0,0,0-.12.46v.07a1,1,0,0,0,.15.56v.11s0,.13-.07.44a3.48,3.48,0,0,0-.08.63V53l.14.14q0,.15-.06.27a4.25,4.25,0,0,0-.08.68v.3l.06.13a2.91,2.91,0,0,0,.19.35.37.37,0,0,1,.06.1v0a8.78,8.78,0,0,1,.19,1,6.68,6.68,0,0,1,.09,1,3.34,3.34,0,0,1-.06.65,4.41,4.41,0,0,0-.09.94v1.06l.15.17a.6.6,0,0,1,.08.28c0,.2,0,.36.06.49l-.09.35c0,.23-.1.49-.15.76s-.1.52-.14.75a4.43,4.43,0,0,0-.06.59v2.24s0,.07,0,.15-.07.26-.13.42-.13.35-.18.51a1.44,1.44,0,0,0-.1.46v.3a1.85,1.85,0,0,0,.12.69.68.68,0,0,1,0,.22,1.79,1.79,0,0,1-.17.75A3,3,0,0,0,32.47,70v.07a.77.77,0,0,0,.79.79h.07c.36,0,.49-.17,1-.82l1-1.28q.54-.7,1.05-1.29c.41-.46.57-.54.58-.54l.13-.05.09-.1a8.69,8.69,0,0,1,.76-.59c.38-.28.84-.59,1.37-.93L41,64.19l1.69-1.1,1.41-1a5.65,5.65,0,0,0,.94-.71l2.8-2.74a22.39,22.39,0,0,0,2.55-3A16,16,0,0,0,52.17,52.25Zm-3.06,1.61a5,5,0,0,1-.39,1.58A4.61,4.61,0,0,1,48,56.61c-.38.47-.79,1-1.23,1.49s-.84,1-1.22,1.39a4.62,4.62,0,0,1-.8.8l-.45.3-.16.12-.29.26-.8.72L41.5,63a4.58,4.58,0,0,1-1.13.73l-1,.41c-.29.12-.58.25-.84.39a2.54,2.54,0,0,0-.72.58l0,0a.75.75,0,0,1-.54.25.64.64,0,0,1-.64-.54H36.5l-.06-.63a12.15,12.15,0,0,1-.06-1.41c0-.35,0-.82-.05-1.4-.06-1-.08-1.84-.08-2.58V55.31l0-.06a1,1,0,0,1-.12-.43,2.38,2.38,0,0,1,.09-.58c0-.23.06-.32.06-.35v-.13a.48.48,0,0,0,0-.18,1.75,1.75,0,0,1-.12-.65,3.21,3.21,0,0,1,.15-.93V48.1l.15,0v-.5a.17.17,0,0,0,0-.1l-.1-.16v-2.9A2.81,2.81,0,0,1,36,43.5a8.58,8.58,0,0,1-.06-.92,1.81,1.81,0,0,1,.49-1.26,2.79,2.79,0,0,1,1-.69,5.7,5.7,0,0,1,1.15-.32,6.17,6.17,0,0,1,1.07-.1h.15l.41,0,.52,0,.55,0h.41a7,7,0,0,1,2,.58A9.38,9.38,0,0,1,45.54,42,8.71,8.71,0,0,1,47,43.35a6.68,6.68,0,0,1,.87,1.36,1.6,1.6,0,0,1,.11.19,1.17,1.17,0,0,1,.1.26,2.07,2.07,0,0,1,.09.39h0a2,2,0,0,1,.35.24l.1.1,0,.13a3.84,3.84,0,0,1,.17,1.13,3,3,0,0,0,.13.84,4,4,0,0,1,.12.4,1.91,1.91,0,0,1,.07.42c0,.42,0,.92,0,1.47s0,1.18,0,1.78S49.16,53.28,49.11,53.86ZM63,62.32c0-.09-.08-.18-.12-.29-.2-.5-.39-1-.56-1.55s-.33-1-.47-1.45a2.55,2.55,0,0,0-.25-.59v-.12a3.29,3.29,0,0,0-.3-1.34,2,2,0,0,1-.19-.85v-.64H61a1,1,0,0,0-.14-.32V52.86a1.55,1.55,0,0,1,0-.55,1.31,1.31,0,0,0-.49-1.5l-.28-.2a1.27,1.27,0,0,1-.29-.24l0,0a1.43,1.43,0,0,0-.37-.39,1.12,1.12,0,0,0-.58-.16l-.21,0a3.11,3.11,0,0,0-1.35.53l-.1.07-.27.18a2.25,2.25,0,0,0-.45.57,1.18,1.18,0,0,1-.13.18,9.41,9.41,0,0,1-.63.76,7.63,7.63,0,0,0-.61.78l-1.72,2.3c-.69.9-1.37,1.86-2,2.85a22,22,0,0,0-1.69,3.05,7.29,7.29,0,0,0-.74,3,6.1,6.1,0,0,0,.11,1.09,4.69,4.69,0,0,0,.37,1.17,2.84,2.84,0,0,0,.78,1,2.17,2.17,0,0,0,1.38.44,2,2,0,0,0,1.53-.62,6,6,0,0,1,.78-.72h0a.42.42,0,0,1,.22-.11,1.21,1.21,0,0,0,.82-.65h0l.18-.19a1.87,1.87,0,0,0,.24-.28l.39-.5c.15-.2.26-.37.35-.5a1.7,1.7,0,0,0,.14-.24,1,1,0,0,0,.07-.15L58,61.64c.06.18.18.48.4,1s.53,1.24.84,1.91.61,1.28.91,1.8c.39.7.71,1.1,1.17,1.1h.58L62,67a3.24,3.24,0,0,1,.11-.37l0-.09h.42v-.64a.74.74,0,0,1,.14-.43,6.55,6.55,0,0,1,.56-.66,8.35,8.35,0,0,0,.66-.81,2.05,2.05,0,0,0,.38-1.19v-.64h-.64A1.18,1.18,0,0,0,63,62.32ZM58.43,58a.17.17,0,0,0,0,.05l0,.1a2.14,2.14,0,0,1-.06.35l0,.2a1.9,1.9,0,0,1-.09.48,2.26,2.26,0,0,1-.38.74,3.74,3.74,0,0,1-.25.29c-.07.08-.14.15-.19.22a2.56,2.56,0,0,0-.27.55l-.06.13c-.07.16-.14.32-.22.47a9,9,0,0,1-1.12,1.75,8.42,8.42,0,0,1-.69.77,1.21,1.21,0,0,0-.16.16l0,0a.83.83,0,0,1-.61.26h-.16a2.94,2.94,0,0,1-2.11-1,3,3,0,0,1-.38-.58,3.79,3.79,0,0,1-.35-1c0-.1,0-.19,0-.29a2.24,2.24,0,0,0-.08-.42c-.3-.87.38-1.65.78-2.11l.05-.06a36,36,0,0,0,4.4-6.26,1.55,1.55,0,0,1,1-.86.75.75,0,0,1,.21,0,1.07,1.07,0,0,1,.78.35.94.94,0,0,1,.23.71.92.92,0,0,1-.08.25h0c0,.05,0,.1,0,.15v2.23l-.3.19v.06a.9.9,0,0,1,.15.46.69.69,0,0,1-.08.32v0a1.39,1.39,0,0,1,.37.87A1.07,1.07,0,0,1,58.43,58Zm20-1.76s-.13.16-.27.36l-.28.37c-.39.38-.81.75-1.27,1.12a6,6,0,0,0-1.13,1.24L73.17,60s-.08,0-.21,0l-.23,0a4,4,0,0,0-.48,0,1.6,1.6,0,0,1-.49,0c-.4-.24-.82-.51-1.26-.8s-.85-.59-1.23-.88a7.83,7.83,0,0,1-1-.87,2.32,2.32,0,0,1-.55-.88q-.1-.12,0-.36A1.24,1.24,0,0,1,68,56l.59-.3.33-.2a3.66,3.66,0,0,1,.33-.23l.62-.38a8,8,0,0,0,.69-.4l1.19-.72L72.92,53c.37-.22.6-.36.69-.4a2.32,2.32,0,0,0,.46-.27l.65-.46.59-.45c.17-.14.25-.25.25-.33q-1.28.49-2.34,1t-2.07,1.11q-1,.57-2.07,1.11a23.17,23.17,0,0,1-2.29,1,9,9,0,0,1-.58-1.13c-.21-.44-.39-.86-.56-1.26a3.19,3.19,0,0,1,0-.78,5.9,5.9,0,0,1,.23-1.41,5.09,5.09,0,0,1,.7-1.5,2.73,2.73,0,0,1,1.37-1.07c-.12,0,0,0,.28-.24a6.09,6.09,0,0,1,1.28-.63A6.8,6.8,0,0,1,71.36,47a4,4,0,0,1,2.09.39c.16-.13.37-.32.62-.57a1,1,0,0,1,.69-.4l-.27-.25a1.49,1.49,0,0,0-.46,0,3,3,0,0,1-.69-.06,3,3,0,0,0-.94.05c-.45.06-.91.15-1.37.25l-1.29.3a5.6,5.6,0,0,0-.73.2,9.17,9.17,0,0,0-3.26,1.95A8.41,8.41,0,0,0,64.12,51a1.85,1.85,0,0,0-.17.5c-.08.36-.3.69-.41,1a4.72,4.72,0,0,0-.1,2.33c.13.6.37,1.17.48,1.77.2,1.16-.05,2.55.81,3.35.35.31.81.47,1.16.78.17.16.31.35.48.52a2.61,2.61,0,0,0,2,.82,6.68,6.68,0,0,1,1,0,1,1,0,0,1,.44.14c.15.11.18.18.37.18a6.45,6.45,0,0,0,2.5-.42l.4-.19.25-.13.06-.15a11,11,0,0,0,1.65-1,4.53,4.53,0,0,0,1.16-1.37l.1-.25a8.54,8.54,0,0,0,.75-.56c.34-.28.68-.6,1-.94a9,9,0,0,0,.84-1c.23-.33.31-.58.24-.74l0-.1-.41.42Zm14.38,8.44a15.4,15.4,0,0,0,4.82,2.6c1.58.6,3.19,1.14,4.81,1.63a19.39,19.39,0,0,0,2.24.58,8.75,8.75,0,0,0,2.28.18l.45,0a.75.75,0,0,0,.32-.1c.07,0,.13-.11.21-.16a.76.76,0,0,1,.41-.1s.25,0,.25.06a.55.55,0,0,0,0,.17c0,.07.09.07.15.1s.06,0,.09.08a1.14,1.14,0,0,0,.36.33,1,1,0,0,0,.35.12l.17,0a.25.25,0,0,0,.11,0,1.21,1.21,0,0,0,.38,0l.39-.06.75-.13.58-.12a1.83,1.83,0,0,1,.25-.06l.26,0a4.54,4.54,0,0,0,.66-.11,1.89,1.89,0,0,0,.34-.09c.06,0,.1-.07.15-.09s.39-.11.58-.17l1.15-.34.88-.26c.44-.13.88-.26,1.31-.43a14.61,14.61,0,0,0,1.38-.67l1.52-.8a.8.8,0,0,0,.29-.22.83.83,0,0,0,.16-.4l.21-1a1.08,1.08,0,0,0,0-.64.5.5,0,0,0-.63-.24c-.33.14-.65.32-1,.48a.85.85,0,0,0-.4.3,3.22,3.22,0,0,0-.18.55.84.84,0,0,1-.32.38,2.41,2.41,0,0,1-.42.22,10.24,10.24,0,0,1-1.06.37,1.43,1.43,0,0,0-.44.15,2.48,2.48,0,0,1-.56.2c-.43.13-.86.25-1.29.35a17.51,17.51,0,0,1-2.26.39q-.57.06-1.14.09l-.58,0h-.28l-.7,0c-.66,0-1.32,0-2,0s-1.32-.11-2-.2-1.29-.22-1.93-.37a16.61,16.61,0,0,1-2.95-.94,23.34,23.34,0,0,1-2.82-1.54,29.92,29.92,0,0,1-5.8-4.16,4.66,4.66,0,0,1-1.13-1.55,6,6,0,0,0-.34-.89,3.14,3.14,0,0,0-.68-.73l-2.7-2.32a2.11,2.11,0,0,1,.49-.5,1,1,0,0,0,.23-.18,4.72,4.72,0,0,1,.5-.5l.71-.7a2.58,2.58,0,0,0,.49-.55,5.13,5.13,0,0,1,.85-1.07,11.78,11.78,0,0,1,1-.85,13.68,13.68,0,0,0,2.23-2.27c.12-.16.26-.33.37-.5a2.46,2.46,0,0,0,.22-.61,5.15,5.15,0,0,0,.17-1.3,2.76,2.76,0,0,0-.29-1.24,1.43,1.43,0,0,1-.15-.64v-.63h-.63a3.58,3.58,0,0,1-.87-.11,4.93,4.93,0,0,0-1.23-.16,7.78,7.78,0,0,0-2.4.36,16.37,16.37,0,0,0-2.06.82c-.61.31-1.25.63-1.9,1a1.92,1.92,0,0,1-.76.3H84a.44.44,0,0,0-.14-.55,1.19,1.19,0,0,0-.57-.23,3.47,3.47,0,0,0-1.5-.11,4.25,4.25,0,0,0-1.9,1.35A12,12,0,0,1,76,48.82c.21.35.47.73.87.78a1.34,1.34,0,0,0,.65-.11l2.67-.93c.44,1.59-.57,3.31-.19,4.92.1.41.29.79.39,1.2a8.74,8.74,0,0,1-.1,3,10.48,10.48,0,0,0,.26,3.66,5,5,0,0,1,.27,3,7,7,0,0,0,2.89-1.94,1.59,1.59,0,0,0,.32-.46,1.89,1.89,0,0,0,0-1,11.89,11.89,0,0,1,0-4.29h0s.29.13.35.16a3.29,3.29,0,0,1,.42.21c.18.11.33.26.51.37l.25.17.5.33,1,.66.76.49a1.63,1.63,0,0,1,.54.5c.24.42.06,1,.26,1.41a2.06,2.06,0,0,0,.86.76C90.79,62.43,91.66,63.73,92.78,64.72ZM86.55,54a4.57,4.57,0,0,1-1.59.26H83.9L83.71,54a3.66,3.66,0,0,1-.43-1.51,10.67,10.67,0,0,1-.1-1.18A7.51,7.51,0,0,1,83.54,49a6.68,6.68,0,0,1,1-2,5.5,5.5,0,0,1,1.63-1.46A4.23,4.23,0,0,1,88.37,45a2.88,2.88,0,0,1,2.12.8,2.52,2.52,0,0,1,.62,1.1.77.77,0,0,1,0,.26,4.62,4.62,0,0,0-.05.65,4.18,4.18,0,0,1,0,.86A2,2,0,0,1,91,49a6.22,6.22,0,0,1-.59,1.35c-.25.46-.5.92-.79,1.37a7.52,7.52,0,0,1-.47.64,1.59,1.59,0,0,1-.5.5c-.28.15-.54.36-.81.53A6.8,6.8,0,0,1,86.55,54Zm7.84-1.78a.85.85,0,0,1,.48.29c.16.25,0,.57-.11.85s-.14.61.1.73c0,0,.1,0,.15,0a.24.24,0,0,1,.12.16,3.89,3.89,0,0,0,.16.44,1,1,0,0,0,.35.3,1,1,0,0,1,.25.16l.25.16.26.16a.36.36,0,0,1,.15.12l.08.15.16.24.34.47.38.51a.33.33,0,0,1,.06.1.69.69,0,0,0,.1.19l.31.44c.21.29.42.58.65.86a19.66,19.66,0,0,0,1.45,1.58l.73.67a3.91,3.91,0,0,1,.61.61c.32.42.43,1,.77,1.38.15.18.36.37.33.61s-.17.31-.17.48.2.32.37.41a1.63,1.63,0,0,0,.84.29,1.22,1.22,0,0,0,.49-.15l.23-.14a.94.94,0,0,1,.15-.06,1.34,1.34,0,0,0,.42-.28,4.55,4.55,0,0,0,.4-.35c.13-.13.25-.26.37-.4a8.07,8.07,0,0,1,1.17-1.37c.12-.09.25-.17.37-.27l.37-.33c.24-.23.47-.47.69-.71a8.76,8.76,0,0,0,.85-1.15,10.38,10.38,0,0,0,1.41-3.49,12.06,12.06,0,0,0,.2-3.72c-.08-.8-.18-1.54-.3-2.23s-.26-1.37-.44-2-.4-1.31-.65-2-.56-1.36-.92-2.1a9.72,9.72,0,0,0-.79-1.36c-.37-.54-.76-1.1-1.19-1.68l-1.22-1.66c-.39-.54-.7-1-.94-1.36-.06-.08-.2-.25-.44-.51s-.5-.54-.77-.8a8.32,8.32,0,0,0-.78-.67c-.25-.18-.42-.23-.52-.15l-.28-.25c-.13-.12-.27-.25-.43-.38l-.43-.38-.27-.25-.39-.25a2.19,2.19,0,0,1-.31-.22h-.23a.55.55,0,0,0,.08.17.4.4,0,0,0,.16.16l.31.18.32.31.39.4.36.36a.68.68,0,0,1,.15.2,4,4,0,0,1,.55.68.94.94,0,0,1,.06.15A1.77,1.77,0,0,0,102,37l.6,1c.38.65.75,1.3,1.11,2s.7,1.33,1,2,.64,1.36.94,2c.2.45.38.9.57,1.36a3.82,3.82,0,0,1,.28,1c0,.22,0,.43,0,.65a3.26,3.26,0,0,0,.63,1.88,2.2,2.2,0,0,1,.17.25,1.36,1.36,0,0,1,.09.36,10.53,10.53,0,0,0,.62,2.05,2.75,2.75,0,0,1,.33,1.17c0,.2-.07.4-.09.6a3.22,3.22,0,0,0,.06.69,4.13,4.13,0,0,1,0,1.11,5.41,5.41,0,0,1-.12.55,1.08,1.08,0,0,0-.1.43,3.57,3.57,0,0,1,0,.73c0,.28,0,.55-.09.82a7.6,7.6,0,0,1-3.13,4.63c-.13.1-.3.19-.44.12a.5.5,0,0,1-.15-.14,9.2,9.2,0,0,0-.63-1.1,5,5,0,0,0-.62-.49,9.41,9.41,0,0,1-2-3c-.19-.32-.39-.63-.6-.94s-.4-.65-.63-.93a2.22,2.22,0,0,1-.38-.86,4.12,4.12,0,0,1-.21-1.1,5.06,5.06,0,0,0,0-.68c-.1-.49-.47-.89-.57-1.37a3,3,0,0,0-.17-.79,1.48,1.48,0,0,0-.92-.59,1.09,1.09,0,0,0-.36-.06.91.91,0,0,0-.31.12l-.69.38-.24.14-.46.25-.17.12c-.18.12-.4.17-.58.3A.53.53,0,0,0,94.39,52.24Zm51.44,1.53v-.41s0-.13,0-.3-.06-.38-.1-.59-.07-.4-.11-.57a1.73,1.73,0,0,1-.06-.32,12.24,12.24,0,0,0-.62-1.49,6.44,6.44,0,0,0-.72-1.09,4.91,4.91,0,0,0-.91-.85,13.67,13.67,0,0,0-1.22-.8h-2.8a.87.87,0,0,1-.81.27,3.06,3.06,0,0,0-.77,0,1.47,1.47,0,0,0-.55.26.72.72,0,0,1-.62.12c-.38.25-.82.52-1.31.81a5.3,5.3,0,0,1-1.49.62,2.53,2.53,0,0,1,.27-.68,1.41,1.41,0,0,0,.18-.68H134a.54.54,0,0,0,.34-.26,2.23,2.23,0,0,0,.24-.49,5.26,5.26,0,0,0,.15-.53,2,2,0,0,0,.06-.38s0,0,0,0-.14.06-.34,0l-.28.13-.46.21-.45.19a2,2,0,0,0-.28.11,6.34,6.34,0,0,1-.73.26l-.21,0h-.28a2,2,0,0,0-.87.32,2.07,2.07,0,0,0-.39.33,2.19,2.19,0,0,0-.49.17c-.22.1-.42.24-.64.35a4.16,4.16,0,0,1-.7.25,1.47,1.47,0,0,0-.28.08L128,49a1.25,1.25,0,0,1-.26.07h-.24c-.38,0-.77,0-1.16,0H126l-.56,0-.57,0h-.34a3.25,3.25,0,0,0-1-.23l-1.07,0V49a18.18,18.18,0,0,1,1.22,2.66,9.09,9.09,0,0,1,.59,3.19,2.67,2.67,0,0,0,.06.31c0,.17.08.35.13.54s.09.37.13.53a2.34,2.34,0,0,1,.06.29,2.46,2.46,0,0,0,0,.77c.07.34,0,.57-.17.7l-2.07,1.43-.19-.26a6.29,6.29,0,0,1-1.72,1,5.43,5.43,0,0,1-1.91.32c-.07,0-.3,0-.68-.07L116,58.58v-.86q0-.69,0-1.44a8,8,0,0,0,0-1.4,8.53,8.53,0,0,0,.28-.81c.14-.44.28-.92.43-1.43s.3-1,.44-1.53.24-.88.32-1.14a1.05,1.05,0,0,1,.15-.24q.15-.21.3-.45c.1-.17.2-.32.29-.46a1.59,1.59,0,0,0,.13-.24c.07-.2.07-.32,0-.36a.79.79,0,0,0-.32-.06,4.05,4.05,0,0,0-.61.08l-.52.11-1.52.76-1.06.54a1.17,1.17,0,0,1-.24.09.34.34,0,0,0-.24.13,3.06,3.06,0,0,0-.28.73c-.18.46-.67.83-.62,1.32a6.8,6.8,0,0,0,.67-.29,1,1,0,0,1,.28-.16l.4-.1a4.21,4.21,0,0,1,.94-.15,15.93,15.93,0,0,0-1.56,2.36,11.9,11.9,0,0,0-.89,2.12,11.06,11.06,0,0,0-.4,1.83,14,14,0,0,0-.09,1.51,2.59,2.59,0,0,0,.22.83A8.55,8.55,0,0,0,113,61a7.36,7.36,0,0,0,.72,1,1,1,0,0,0,.68.44l.3,0a.9.9,0,0,0,.34-.21.37.37,0,0,0,0,.47,1.62,1.62,0,0,0,.4.38,2,2,0,0,0,.53.26,1.41,1.41,0,0,0,.36.1.87.87,0,0,0,.3-.12l.3-.15c.6-.32,1.22-.61,1.83-.87a12,12,0,0,0,1.72-.86l2.06-1.23A19.28,19.28,0,0,1,124.89,59v.38c0,.2,0,.41,0,.62s0,.42,0,.6,0,.31,0,.36v.23c0,.1,0,.22,0,.36s0,.26,0,.38,0,.18.06.2a3.83,3.83,0,0,1,0,.68c0,.36,0,.58,0,.68l.07,8.6a.69.69,0,0,0-.09.18,1,1,0,0,0-.06.19v.19a1.78,1.78,0,0,0,.08.46,1.6,1.6,0,0,1,.07.45.45.45,0,0,1-.07.28.41.41,0,0,1-.17.13l-.19.1a.32.32,0,0,0-.13.21c0,.12-.07.24-.11.36s-.09.16-.12.24-.11.3-.18.44a3.28,3.28,0,0,1-.27.38,2.7,2.7,0,0,1-.72.58,5.15,5.15,0,0,1-1.85.55c-4,.6-8.11-.35-11.92-1.75l-1.62-.62c-.71-.29-1.42-.58-2.13-.89l-2.12-.91q-1.06-.47-2.13-.9c-.71-.3-1.42-.58-2.14-.86l-.54-.19a2.07,2.07,0,0,0-.53-.18h-.16l-.11,0-.62-.18a9.92,9.92,0,0,0-2.8-.49,1.58,1.58,0,0,0-.8.17,2.06,2.06,0,0,0-.7,1.24,7.7,7.7,0,0,1-2.91,4,1.94,1.94,0,0,0,2.2-.15c.65-.43,1.14-1.07,1.77-1.54A6.23,6.23,0,0,1,99.83,73a32.45,32.45,0,0,1,5.29,2.83,28.58,28.58,0,0,0,10.62,3.55,15.79,15.79,0,0,0,6.09-.26,9.18,9.18,0,0,0,3.35-1.67,7.48,7.48,0,0,0,1.1-1.08c.16-.2.28-.44.45-.62s.42-.43.61-.66a5.61,5.61,0,0,0,.63-1.19,10,10,0,0,0,.39-1.38,14.37,14.37,0,0,0,.23-1.44c0-.47.09-.92.11-1.32a4.18,4.18,0,0,1,.06-.43c0-.24.07-.4.09-.47V64.29c0-1.41,0-2.78-.15-4.1s-.24-2.68-.41-4.06v-.49l-.38.23a9,9,0,0,0,.06-1.21,6.28,6.28,0,0,0-.14-1.06c-.07-.35-.17-.73-.28-1.13s-.26-.87-.43-1.4c-.05-.13,0-.21.17-.26a5.25,5.25,0,0,1,.54-.14,6,6,0,0,0,.61-.13.82.82,0,0,0,.41-.19s-.13-.2-.14-.23a2.83,2.83,0,0,0,.66-.31,1.42,1.42,0,0,1,.29-.21h.06a2.06,2.06,0,0,0,.83-.54,2.74,2.74,0,0,1,.36-.23,1.63,1.63,0,0,1,.54-.06q.38,0,.66,0c.19,0,.25.07.2.17a2,2,0,0,1-.43.57l-.57.52-.51.5a.62.62,0,0,0-.22.41,1.86,1.86,0,0,1-.06.62,1,1,0,0,1-.11.21,1,1,0,0,0-.12.23,2.25,2.25,0,0,0,0,.68c-.06,0-.11.17-.17.45s-.13.59-.19.93a9.43,9.43,0,0,0-.15,1,5.71,5.71,0,0,0-.06.6,1.25,1.25,0,0,0,.07.27,2.2,2.2,0,0,1,.08.26.55.55,0,0,1-.08.17.51.51,0,0,0-.07.17v.08a9.68,9.68,0,0,0,.07,1.15,4.2,4.2,0,0,0,.46,1.36,7.94,7.94,0,0,0,1.11,1.58,12.34,12.34,0,0,0,2.1,1.84,1.43,1.43,0,0,0,.28.19,2.47,2.47,0,0,0,.42.17,1.63,1.63,0,0,0,.35,0,.27.27,0,0,0,.27-.15,4.54,4.54,0,0,1-.51-1.06c-.19-.5-.37-1-.55-1.56s-.34-1-.49-1.48-.28-.68-.38-.73l.31-.19a5.1,5.1,0,0,1-.14-.62c0-.14,0-.33,0-.55s0-.57,0-1.12,0-1.1.08-1.7.09-1.14.15-1.66a2.9,2.9,0,0,1,.28-1.07,2.62,2.62,0,0,1,.36-.38,6.1,6.1,0,0,1,.61-.51c.21-.16.41-.32.6-.45l.4-.29h.15l.24-.07a1.17,1.17,0,0,1,.29-.08,1.47,1.47,0,0,1,.41,0l.64.06.65.06.41,0a8.5,8.5,0,0,1,1.93,1,12.89,12.89,0,0,1,1.7,1.48,2,2,0,0,0,0,.67c.05.33.11.67.17,1s.14.67.21,1,.14.43.19.45v1.51a3.89,3.89,0,0,0,0,.68,2.59,2.59,0,0,0,.09.42,2.45,2.45,0,0,1,.08.37,4.11,4.11,0,0,1,0,.57,17.81,17.81,0,0,0-.27,2.21A8.58,8.58,0,0,1,142,63l-.59,1.47-.73,1.87c-.25.64-.51,1.27-.76,1.89s-.48,1.13-.68,1.53c0,.05-.15.26-.37.64l-.74,1.23c-.27.44-.61,1-1,1.75a18.83,18.83,0,0,1-1.62,2.5c-.51.63-1,1.23-1.4,1.81a.12.12,0,0,0,0,.11c.5-.5,1-1,1.47-1.58s.95-1.11,1.4-1.67a16.13,16.13,0,0,0,1.25-1.85c.55-.9,1.16-2,1.81-3.15s1.33-2.49,2-3.87,1.34-2.72,1.91-4,1-2.46,1.39-3.51a8.08,8.08,0,0,0,.55-2.42V54.08A1,1,0,0,1,145.83,53.77Z" transform="translate(-31.04 -33.95)"/></svg>