<svg id="Layer_1" data-name="Layer 1" xmlns="http://www.w3.org/2000/svg" viewBox="0 0 41.88 62.23"><defs><style>.cls-1{fill:#e18a3d;}</style></defs><path class="cls-1" d="M559,1244.56c-6.64-2.46-9-10-7.94-17.34a28.91,28.91,0,0,1,13.23-20.38c1.21-.76,6.69,7.3,6.08,12s-4.56,10.64-5.47,11.7,5.62,0,7.75-3,3.8-9.27,2.74-14.75-5.48-15.66-9.58-19.46-14.75-7.91-16-6.09c-1.38,2.08,5.93,5.94,5.93,9s-3.34,8.66-5.93,11.4-8.93,14.34-8.36,21.75c.76,9.88,5.78,16.73,14.29,18.55s16.88,1.07,16.88,0S563.14,1246.08,559,1244.56Zm15.32-44.41c-4.1-3.5,5.48,12.17,3.35,23.88-1.12,6.13-6.24,11.1-14.45,12.47-6.45,1.07-10.19-.16-10.19-.16,1.68,2.13,3.81,8.82,13.23,7.91,7.9-.76,16.08-9.62,16.88-17.34C584.55,1213.84,577.39,1202.73,574.36,1200.15Z" transform="translate(-541.48 -1186.78)"/></svg>