<?xml version="1.0" encoding="UTF-8" standalone="no"?>
<!-- Created with Inkscape (http://www.inkscape.org/) -->

<svg
   xmlnsDc="http://purl.org/dc/elements/1.1/"
   xmlnsCc="http://creativecommons.org/ns#"
   xmlnsRdf="http://www.w3.org/1999/02/22-rdf-syntax-ns#"
   xmlnsSvg="http://www.w3.org/2000/svg"
   xmlns="http://www.w3.org/2000/svg"
   xmlnsSodipodi="http://sodipodi.sourceforge.net/DTD/sodipodi-0.dtd"
   xmlnsInkscape="http://www.inkscape.org/namespaces/inkscape"
   width="1000"
   height="1000"
   id="svg16419"
   version="1.1"
   inkscapeVersion="0.48.2 r9819"
   sodipodiDocname="Storm.svg">
  <defs
     id="defs16421" />
  <sodipodiNamedview
     id="base"
     pagecolor="#ffffff"
     bordercolor="#666666"
     borderopacity="1.0"
     inkscapePageopacity="0.0"
     inkscapePageshadow="2"
     inkscapeZoom="0.25000001"
     inkscapeCx="-491.94082"
     inkscapeCy="590.05538"
     inkscapeDocument-units="px"
     inkscapeCurrent-layer="g33348"
     showgrid="false"
     inkscapeSnap-grids="true"
     inkscapeWindow-width="1218"
     inkscapeWindow-height="756"
     inkscapeWindow-x="62"
     inkscapeWindow-y="0"
     inkscapeWindow-maximized="0"
     inkscapeSnap-bbox="false"
     inkscapeObject-nodes="false"
     showguides="true"
     inkscapeGuide-bbox="true">
    <inkscapeGrid
       type="xygrid"
       id="grid16427"
       empspacing="10"
       visible="true"
       enabled="true"
       snapvisiblegridlinesonly="true" />
  </sodipodiNamedview>
  <metadata
     id="metadata16424">
    <rdfRDF>
      <ccWork
         rdfAbout="">
        <dcFormat>image/svg+xml</dcFormat>
        <dcType
           rdfResource="http://purl.org/dc/dcmitype/StillImage" />
        <dcTitle />
      </ccWork>
    </rdfRDF>
  </metadata>
  <g
     inkscapeLabel="Layer 1"
     inkscapeGroupmode="layer"
     id="layer1"
     transform="translate(0,-52.36218)">
    <g
       id="g33348"
       transform="translate(944.75,-21.714911)">
      <path
         id="path19300"
         d="m -507.24997,594.07712 -32.8125,122.18698 -6.5625,25 10,0 15.625,0 10,0 1.5625,0 -9.6875,35.93799 -12.8125,48.43699 -12.8125,48.438 35.3125,-35.313 96.24998,-95.93698 40,-39.99999 24.99999,-25 -33.12499,0 -18.75,0 48.43749,-83.74999 -9.99999,0 -28.75,0 -48.43749,83.74999 -14.375,25 28.74999,0 5.9375,0 -31.56249,31.24999 -29.375,29.375 5.625,-21.563 0.312,-0.62 6.875,-25 -10,0 -16.25,0 -9.99999,0 -1.25,0 32.49999,-122.18698 -10,0 -25.62499,0 z"
         style="fill:#aba293;fill-opacity:1;stroke:none"
         inkscapeConnector-curvature="0" />
      <path
         id="path16429-7"
         d="m -444.75,274.0771 c -74.84197,0 -140.08443,41.09928 -174.375,101.96875 -71.25096,11.6427 -125.625,73.48762 -125.625,148.03125 0,81.1695 64.47189,147.2688 145,149.90625 l 0,-50.03125 c -52.91012,-2.60028 -95,-46.31987 -95,-99.875 0,-55.22847 44.77153,-100 100,-100 2.83359,0 5.63235,0.11267 8.40625,0.34375 20.49388,-58.44015 76.15369,-100.34375 141.59375,-100.34375 66.86105,0 123.47712,43.75692 142.84375,104.1875 -20.1899,5.3581 -38.37631,15.6274 -53.1875,29.46875 l 35.40625,35.40625 c 13.26274,-11.84864 30.75346,-19.0625 49.9375,-19.0625 41.42136,0 75,33.57864 75,75 0,41.42136 -33.57864,75 -75,75 l -20,0 0,50 20,0 c 69.03559,0 125,-55.96441 125,-125 0,-62.55289 -45.95167,-114.38165 -105.9375,-123.5625 C -272.39162,338.53331 -351.04715,274.0771 -444.75,274.0771 z"
         style="fill:#aba293;fill-opacity:1;stroke:none"
         inkscapeConnector-curvature="0" />
    </g>
  </g>
</svg>