<svg id="Layer_1" data-name="Layer 1" xmlns="http://www.w3.org/2000/svg" viewBox="0 0 145.39 81.65"><defs><style>.cls-1{fill:#dfecef;}</style></defs><path class="cls-1" d="M601,1177.26c-13.58,1.72-21.83,9.43-22.26,23.44s6.74,22.47,17.73,22.9,12.07-10.13,12.07-10.13-4.74,4.74-10.13.86c-4.33-3.12-3.64-10.3.65-14.44,6.46-6.25,17.67-1.29,17.24,11.85s-8.19,25.65-33,25.65-61.9-34.62-70.91-37.5c-16.81-5.39-23.28,5.39-23.28,5.39,19.19-3.88,30.39,4.52,41.6,17.67,7.57,8.87,22.85,34.92,53.46,35.78s48.28-17.46,50.22-43.54S614.59,1175.53,601,1177.26Zm-45.7,28.23c-8.62,0-12.18-9.91-39.44-14.44,18.75,9.44,15.17,11,30,22,14.44,10.77,28,1.5,29.1-6.9,1.32-10.32-1.73-23.25-14.23-23.06-11.76.17-12.93,13.58-10.56,16.38.71.84,7.72-9.35,12.83-4.83S563.94,1205.49,555.31,1205.49ZM507,1219.93c5,1.73,13.11,6.37,16,11.64,7.55,14,1.46,18.19-2.58,15.74-7.12-4.31-5.07-14.08-7.33-9.7-3.45,6.68-2.37,20,6.46,20,6.26,0,17.46-6.68,12.94-18.88C526.41,1222.45,515.87,1219.36,507,1219.93Z" transform="translate(-489.14 -1177.11)"/></svg>