<svg id="Layer_1" data-name="Layer 1" xmlns="http://www.w3.org/2000/svg" viewBox="0 0 182 196.81"><defs><style>.cls-1{fill:#251013;}.cls-2{fill:#c8bbab;}.cls-3{fill:#fff;}</style></defs><path class="cls-1" d="M136.16,23.11H48.74L5,98.82l43.7,75.71h87.42l43.71-75.71ZM134.6,171.82H50.31l-42.15-73,42.15-73H134.6l42.15,73Z" transform="translate(-1.45 -0.41)"/><path class="cls-2" d="M177.6,116.41a35.2,35.2,0,0,0-13.47-16.77,1,1,0,0,1,0-1.64,35.44,35.44,0,0,0,14.18-40.15,3.2,3.2,0,0,0-2.22-2.11l-5.46-1.46a1,1,0,0,1-.69-1.2l1.44-5.37a3.2,3.2,0,0,0-.74-3,35.42,35.42,0,0,0-25.93-11.28A35.06,35.06,0,0,0,129,37.16a1,1,0,0,1-1.42-.82A35.32,35.32,0,0,0,100.22,4.05a3.17,3.17,0,0,0-3,.87L93.32,8.85a1,1,0,0,1-1.38,0l-4-4a3.26,3.26,0,0,0-2.27-.94A3.81,3.81,0,0,0,85,4,35.44,35.44,0,0,0,57.33,36.34a1,1,0,0,1-1.42.82A35.06,35.06,0,0,0,40.2,33.43,35.42,35.42,0,0,0,14.27,44.71a3.2,3.2,0,0,0-.74,3L15,53.08a1,1,0,0,1-.69,1.2L8.82,55.74A3.2,3.2,0,0,0,6.6,57.85,35.44,35.44,0,0,0,20.78,98a1,1,0,0,1,0,1.64A35.35,35.35,0,0,0,6.5,139.47a3.18,3.18,0,0,0,2.23,2.14l5.38,1.44a1,1,0,0,1,.69,1.2l-1.46,5.46a3.18,3.18,0,0,0,.71,3,35.31,35.31,0,0,0,41.86,7.79,1,1,0,0,1,1.42.82A35.42,35.42,0,0,0,85,193.65a3.05,3.05,0,0,0,.67.07,3.22,3.22,0,0,0,2.27-.94l4-4a1,1,0,0,1,1.38,0l3.93,3.93a3.24,3.24,0,0,0,2.27.94,2.74,2.74,0,0,0,.7-.08,35.32,35.32,0,0,0,27.36-32.28,1,1,0,0,1,1.42-.82,35,35,0,0,0,15.71,3.72h0a35.39,35.39,0,0,0,26.15-11.51,3.18,3.18,0,0,0,.71-3l-1.46-5.46a1,1,0,0,1,.69-1.2l5.37-1.44a3.18,3.18,0,0,0,2.24-2.14A35.42,35.42,0,0,0,177.6,116.41ZM176.74,139a1.47,1.47,0,0,1-1,1l-6.59,1.77a1.46,1.46,0,0,0-1,1.79l1.78,6.68a1.41,1.41,0,0,1-.32,1.35A33.56,33.56,0,0,1,128.09,158a1.47,1.47,0,0,0-2.2,1.27h0a33.57,33.57,0,0,1-26.06,32.61,1.45,1.45,0,0,1-1.34-.4l-4.82-4.82a1.48,1.48,0,0,0-2.08,0l-4.88,4.89a1.47,1.47,0,0,1-1.34.39A33.56,33.56,0,0,1,59,159.27h0a1.47,1.47,0,0,0-2.2-1.27,33.58,33.58,0,0,1-41.48-6.49,1.47,1.47,0,0,1-.32-1.35l1.79-6.68a1.46,1.46,0,0,0-1-1.79l-6.59-1.77a1.47,1.47,0,0,1-1-1,33.57,33.57,0,0,1,15.21-38.87,1.46,1.46,0,0,0,0-2.54A33.58,33.58,0,0,1,8.26,58.39a1.47,1.47,0,0,1,1-1L16,55.64a1.46,1.46,0,0,0,1-1.79l-1.77-6.59a1.44,1.44,0,0,1,.33-1.36,33.56,33.56,0,0,1,41.27-6.26A1.47,1.47,0,0,0,59,38.37h0A33.56,33.56,0,0,1,85.37,5.69a1.47,1.47,0,0,1,1.34.4L91.59,11a1.48,1.48,0,0,0,2.08,0l4.82-4.83a1.45,1.45,0,0,1,1.34-.39,33.57,33.57,0,0,1,26.06,32.61h0a1.47,1.47,0,0,0,2.2,1.27,33.56,33.56,0,0,1,41.27,6.26,1.44,1.44,0,0,1,.33,1.36l-1.77,6.59a1.46,1.46,0,0,0,1,1.79l6.67,1.79a1.45,1.45,0,0,1,1,1,33.56,33.56,0,0,1-15.11,39.16,1.46,1.46,0,0,0,0,2.54A33.57,33.57,0,0,1,176.74,139Z" transform="translate(-1.45 -0.41)"/><path class="cls-2" d="M180.87,115.15a38.57,38.57,0,0,0-11.94-16.33,39.12,39.12,0,0,0,12.71-42A6.65,6.65,0,0,0,177,52.37l-3-.81.78-2.94a6.69,6.69,0,0,0-1.54-6.29,38.83,38.83,0,0,0-42.51-9.75A38.84,38.84,0,0,0,101,.64a6.76,6.76,0,0,0-6.22,1.8L92.63,4.6,90.41,2.38A6.6,6.6,0,0,0,84.26.57a39.11,39.11,0,0,0-30,32A38.84,38.84,0,0,0,11.7,42.33a6.66,6.66,0,0,0-1.54,6.29l.78,2.94-3,.81a6.63,6.63,0,0,0-4.65,4.42A39.12,39.12,0,0,0,16,98.82,38.49,38.49,0,0,0,4,115.15a39,39,0,0,0-.88,25.36A6.67,6.67,0,0,0,7.83,145l2.94.79-.81,3a6.69,6.69,0,0,0,1.5,6.24,38.79,38.79,0,0,0,42.76,10,39.11,39.11,0,0,0,30,32,6.69,6.69,0,0,0,6.15-1.82L92.63,193l2.15,2.15a6.76,6.76,0,0,0,4.74,2A6.65,6.65,0,0,0,101,197a38.84,38.84,0,0,0,29.7-31.94,38.76,38.76,0,0,0,42.74-10A6.67,6.67,0,0,0,175,148.8l-.81-3,2.94-.79a6.67,6.67,0,0,0,4.67-4.48A39,39,0,0,0,180.87,115.15ZM180.08,140a4.93,4.93,0,0,1-3.45,3.31L172,144.54l1.26,4.72a4.91,4.91,0,0,1-1.11,4.61,37.07,37.07,0,0,1-42.91,8.67,37.08,37.08,0,0,1-28.63,32.75A4.94,4.94,0,0,1,96,194l-3.39-3.38L89.18,194a5,5,0,0,1-3.51,1.45,4.54,4.54,0,0,1-1-.11,37.3,37.3,0,0,1-29-32.83A36.73,36.73,0,0,1,40.2,166a37.13,37.13,0,0,1-27.44-12.08,4.92,4.92,0,0,1-1.11-4.61l1.26-4.72L8.28,143.3A4.93,4.93,0,0,1,4.83,140,37.07,37.07,0,0,1,18.88,98.82,37.33,37.33,0,0,1,4.93,57.32a5,5,0,0,1,3.44-3.26l4.71-1.27-1.24-4.63A4.93,4.93,0,0,1,13,43.52,37,37,0,0,1,55.67,35.1a37.3,37.3,0,0,1,29-32.82,4.55,4.55,0,0,1,1-.12,5,5,0,0,1,3.51,1.46l3.45,3.45L96,3.68a5,5,0,0,1,3.5-1.45,4.92,4.92,0,0,1,1.09.12A37.05,37.05,0,0,1,129.24,35.1a37,37,0,0,1,42.68,8.42,4.9,4.9,0,0,1,1.14,4.64l-1.24,4.63,4.72,1.27A4.91,4.91,0,0,1,180,57.32,37.31,37.31,0,0,1,166,98.82,37.07,37.07,0,0,1,180.08,140Z" transform="translate(-1.45 -0.41)"/><path class="cls-3" d="M56.17,94.3a11.52,11.52,0,0,0,.72-4.15,8.36,8.36,0,0,0-.49-2.66,11.57,11.57,0,0,0-1.32-2.66,10.26,10.26,0,0,0-1.95-2.19,5.82,5.82,0,0,0-2.47-1.26,12.22,12.22,0,0,0-1.7-.25c-.67,0-1.2-.07-1.62-.07s-1.12,0-1.78.09-1.32.15-2,.25l-2,.33c-.63.11-1.2.21-1.72.32h-.19a1.37,1.37,0,0,1-.49-.09,2.34,2.34,0,0,0-.86-.16,2.94,2.94,0,0,0-.51,0,4.57,4.57,0,0,1-.52,0,5.7,5.7,0,0,0-.83.1,2.58,2.58,0,0,0-.87.36,1.29,1.29,0,0,0-.56,1.1v.34l.18.18a1.1,1.1,0,0,0,.35.22l.12.05.14.07H36l.18.68c.06.24.13.47.19.69a3.26,3.26,0,0,0,.18.49c0,.06,0,.13.08.23a4,4,0,0,1,.11.44l.12.56a.81.81,0,0,0-.11.39,1.36,1.36,0,0,0,.08.41,1.86,1.86,0,0,0,.11.27.56.56,0,0,0,0,.23v.6a6.93,6.93,0,0,0,.06.82c0,.42.07.67.1.82l0,.08-.06.11a1,1,0,0,0-.12.44,2.06,2.06,0,0,0,.09.53l0,.17v0a1.25,1.25,0,0,0-.12.46v.08a1,1,0,0,0,.15.55v.11s0,.13-.07.44a3.62,3.62,0,0,0-.08.64V95l.14.15-.06.27a4.14,4.14,0,0,0-.08.68v.3l.06.13s.06.12.19.34l.06.1V97a8.33,8.33,0,0,1,.19,1,6.46,6.46,0,0,1,.09,1,3.24,3.24,0,0,1-.06.64,4.55,4.55,0,0,0-.09.94v1.06l.15.18a.55.55,0,0,1,.08.28c0,.19,0,.36.06.49l-.09.35q-.07.34-.15.75c0,.27-.1.52-.14.75a4.39,4.39,0,0,0-.06.6v2.24s0,.06,0,.14a3.81,3.81,0,0,1-.13.42c-.07.19-.13.35-.18.51a1.44,1.44,0,0,0-.1.46v.31a1.88,1.88,0,0,0,.12.69.56.56,0,0,1,0,.21,1.87,1.87,0,0,1-.17.76,3,3,0,0,0-.29,1.28v.08a.76.76,0,0,0,.79.78h.07c.36,0,.49-.17,1-.81l1-1.29c.36-.46.71-.9,1.05-1.29a2.52,2.52,0,0,1,.58-.54l.13,0,.09-.1a7.78,7.78,0,0,1,.76-.6c.38-.27.84-.58,1.37-.92L45,106.24l1.69-1.1,1.41-.94a5.57,5.57,0,0,0,.94-.72l2.8-2.74a23,23,0,0,0,2.55-3A16,16,0,0,0,56.17,94.3Zm-3.06,1.61a5.08,5.08,0,0,1-.39,1.59A4.84,4.84,0,0,1,52,98.66c-.38.48-.79,1-1.23,1.49s-.84,1-1.22,1.4a4.62,4.62,0,0,1-.8.8l-.45.3-.16.11-.29.26-.8.73-1.51,1.34a4.89,4.89,0,0,1-1.13.73c-.32.14-.65.28-1,.4s-.58.25-.84.39a2.6,2.6,0,0,0-.72.59h0a.75.75,0,0,1-.54.26.64.64,0,0,1-.64-.55l-.14,0-.06-.64a12.06,12.06,0,0,1-.06-1.41c0-.35,0-.82-.05-1.39-.06-1-.08-1.84-.08-2.59V97.36l0,0a1,1,0,0,1-.12-.44,2.51,2.51,0,0,1,.09-.58c0-.23.06-.32.06-.34v-.14a.52.52,0,0,0,0-.18A1.67,1.67,0,0,1,40.1,95a3.21,3.21,0,0,1,.15-.93V90.16l.15,0v-.51a.21.21,0,0,0,0-.1l-.1-.16v-2.9a2.81,2.81,0,0,1-.24-.9,8.58,8.58,0,0,1-.06-.92,1.82,1.82,0,0,1,.49-1.27,2.9,2.9,0,0,1,1-.68,5.7,5.7,0,0,1,1.15-.32,6.17,6.17,0,0,1,1.07-.1h.15a3.6,3.6,0,0,1,.41,0l.52,0,.55,0,.33,0h.08a7.26,7.26,0,0,1,2,.58A9.38,9.38,0,0,1,49.54,84,8.35,8.35,0,0,1,51,85.41a6.63,6.63,0,0,1,.87,1.35,1.8,1.8,0,0,1,.11.2,1.09,1.09,0,0,1,.1.25,2.07,2.07,0,0,1,.09.39h0a1.88,1.88,0,0,1,.35.25l.1.09,0,.14a3.79,3.79,0,0,1,.17,1.13,3.09,3.09,0,0,0,.13.84,4,4,0,0,1,.12.4,1.83,1.83,0,0,1,.07.42c0,.42,0,.91,0,1.46s0,1.18,0,1.79S53.16,95.34,53.11,95.91ZM67,104.37a2.61,2.61,0,0,1-.12-.28c-.2-.5-.39-1-.56-1.55s-.33-1-.47-1.46a3,3,0,0,0-.25-.59v-.12a3.21,3.21,0,0,0-.3-1.33,2.06,2.06,0,0,1-.19-.86v-.63H65a1,1,0,0,0-.14-.33V94.91a1.55,1.55,0,0,1,0-.55,1.3,1.3,0,0,0-.49-1.49,2.55,2.55,0,0,0-.28-.21,1.27,1.27,0,0,1-.29-.23l0-.05a1.2,1.2,0,0,0-.37-.39,1,1,0,0,0-.58-.16h-.21a3,3,0,0,0-1.35.54l-.1.06-.27.19a2.21,2.21,0,0,0-.45.56,1.27,1.27,0,0,1-.13.19,9.25,9.25,0,0,1-.63.75,8.9,8.9,0,0,0-.61.78c-.48.66-1.06,1.43-1.72,2.3s-1.37,1.87-2,2.85a22.57,22.57,0,0,0-1.69,3,7.36,7.36,0,0,0-.74,3,6.3,6.3,0,0,0,.11,1.1,4.62,4.62,0,0,0,.37,1.16,3,3,0,0,0,.78,1,2.17,2.17,0,0,0,1.38.44,2,2,0,0,0,1.53-.63,6,6,0,0,1,.78-.71l0,0a.51.51,0,0,1,.22-.11,1.18,1.18,0,0,0,.82-.65h0l.18-.18a2.76,2.76,0,0,0,.24-.28l.39-.51c.15-.2.26-.36.35-.5a1.27,1.27,0,0,0,.14-.24.61.61,0,0,0,.07-.14L62,103.69c.06.19.18.49.4,1s.53,1.24.84,1.91.61,1.27.91,1.8c.39.69.71,1.1,1.17,1.1h.58L66,109c.05-.2.09-.31.11-.37l.05-.09h.42v-.63a.74.74,0,0,1,.14-.44c.16-.21.35-.43.56-.66a8.35,8.35,0,0,0,.66-.81,2,2,0,0,0,.38-1.19v-.63h-.64A1.18,1.18,0,0,0,67,104.37Zm-4.6-4.27s0,0,0,.05l0,.1a2.33,2.33,0,0,1-.06.35l0,.2a1.76,1.76,0,0,1-.09.47,2.26,2.26,0,0,1-.38.74,2.49,2.49,0,0,1-.25.29l-.19.22a2.82,2.82,0,0,0-.27.55l-.06.14c-.07.15-.14.31-.22.47a9,9,0,0,1-1.12,1.75c-.21.26-.45.52-.69.77l-.17.15,0,0a.83.83,0,0,1-.61.25h-.16a2.91,2.91,0,0,1-2.11-1,3,3,0,0,1-.38-.57,4,4,0,0,1-.35-1c0-.09,0-.19,0-.28a2.54,2.54,0,0,0-.08-.43c-.3-.87.38-1.64.78-2.11l.05,0a36.36,36.36,0,0,0,4.4-6.26,1.52,1.52,0,0,1,1-.86.76.76,0,0,1,.21,0,1,1,0,0,1,.78.36.93.93,0,0,1,.23.71,1.23,1.23,0,0,1-.08.25h0s0,.1,0,.14v2.24l-.3.18v.07a.86.86,0,0,1,.15.45.73.73,0,0,1-.08.33h0a1.39,1.39,0,0,1,.37.87A1.12,1.12,0,0,1,62.43,100.1Zm20-1.76s-.13.16-.27.36-.24.32-.28.36c-.39.38-.81.76-1.27,1.13a5.5,5.5,0,0,0-1.13,1.24l-2.28.63s-.08,0-.21,0l-.23,0-.48,0a1.23,1.23,0,0,1-.49,0c-.4-.24-.82-.51-1.26-.8s-.85-.58-1.23-.87a7.86,7.86,0,0,1-1-.88,2.22,2.22,0,0,1-.55-.87c-.07-.09-.06-.21,0-.37A1.15,1.15,0,0,1,72,98l.59-.31.33-.2a3.76,3.76,0,0,1,.33-.22l.62-.39q.14-.06.69-.39l1.19-.73,1.19-.73q.56-.33.69-.39a2.52,2.52,0,0,0,.46-.28l.65-.45c.22-.16.41-.32.59-.46s.25-.25.25-.33c-.85.33-1.63.67-2.34,1s-1.4.72-2.07,1.1-1.37.75-2.07,1.12a23.17,23.17,0,0,1-2.29,1,9.73,9.73,0,0,1-.58-1.13c-.21-.45-.39-.87-.56-1.26a3.34,3.34,0,0,1,0-.79,5.9,5.9,0,0,1,.23-1.4,5.26,5.26,0,0,1,.7-1.51,2.78,2.78,0,0,1,1.37-1.07c-.12,0,0,0,.28-.24a6.12,6.12,0,0,1,1.28-.62A7.16,7.16,0,0,1,75.36,89a4.26,4.26,0,0,1,2.09.39,5.5,5.5,0,0,0,.62-.57,1.07,1.07,0,0,1,.69-.39l-.27-.26a1.49,1.49,0,0,0-.46,0,2.19,2.19,0,0,1-.69-.06,3.31,3.31,0,0,0-.94,0c-.45.07-.91.15-1.37.25l-1.29.3a6.93,6.93,0,0,0-.73.21,9,9,0,0,0-3.26,1.94A8.59,8.59,0,0,0,68.12,93a1.91,1.91,0,0,0-.17.51c-.08.36-.3.69-.41,1a4.72,4.72,0,0,0-.1,2.33c.13.59.37,1.16.48,1.76.2,1.16,0,2.55.81,3.35.35.32.81.47,1.16.78.17.16.31.36.48.53a2.61,2.61,0,0,0,2,.82,5.57,5.57,0,0,1,1,0,1,1,0,0,1,.44.15c.15.1.18.18.37.18a6.65,6.65,0,0,0,2.5-.43l.4-.19.25-.12.06-.15a11.94,11.94,0,0,0,1.65-1,4.57,4.57,0,0,0,1.16-1.38l.1-.24a8.54,8.54,0,0,0,.75-.56c.34-.29.68-.6,1-.95a8.16,8.16,0,0,0,.84-1c.23-.33.31-.57.24-.74l0-.09c-.1.09-.23.23-.41.42Zm14.38,8.43a15.2,15.2,0,0,0,4.82,2.6c1.58.6,3.19,1.15,4.81,1.64.74.22,1.48.43,2.24.58a9.71,9.71,0,0,0,2.28.18l.45,0a.62.62,0,0,0,.32-.09,1.66,1.66,0,0,1,.21-.16.69.69,0,0,1,.41-.11s.25,0,.25.06a.47.47,0,0,0,0,.17.22.22,0,0,0,.15.1s.06,0,.09.08a1.14,1.14,0,0,0,.36.33,1.33,1.33,0,0,0,.35.13l.17,0,.11,0a1.22,1.22,0,0,0,.38,0l.39,0,.75-.13.58-.13a1.83,1.83,0,0,1,.25-.06h.26a3.5,3.5,0,0,0,.66-.12,1.31,1.31,0,0,0,.34-.09c.06,0,.1-.06.15-.08s.39-.12.58-.17l1.15-.35.88-.25a12.59,12.59,0,0,0,1.31-.44,14.53,14.53,0,0,0,1.38-.66l1.52-.81a.9.9,0,0,0,.29-.21.83.83,0,0,0,.16-.4l.21-1a1.08,1.08,0,0,0,0-.64.48.48,0,0,0-.63-.24c-.33.14-.65.32-1,.47a1,1,0,0,0-.4.3,3.22,3.22,0,0,0-.18.55.87.87,0,0,1-.32.39,3.29,3.29,0,0,1-.42.21,8.33,8.33,0,0,1-1.06.37,2.28,2.28,0,0,0-.44.15,1.78,1.78,0,0,1-.56.2c-.43.14-.86.25-1.29.36a21.78,21.78,0,0,1-2.26.39q-.57.06-1.14.09l-.58,0h-.28l-.7,0c-.66,0-1.32,0-2,0a19,19,0,0,1-2-.2c-.65-.09-1.29-.21-1.93-.36a16.64,16.64,0,0,1-2.95-.95,23.27,23.27,0,0,1-2.82-1.53,29.55,29.55,0,0,1-5.8-4.17,4.62,4.62,0,0,1-1.13-1.54,5.28,5.28,0,0,0-.34-.89,3.19,3.19,0,0,0-.68-.74l-2.7-2.32a2.07,2.07,0,0,1,.49-.49,1.06,1.06,0,0,0,.23-.19,4.64,4.64,0,0,1,.5-.49c.23-.24.47-.47.71-.71a2.79,2.79,0,0,0,.49-.54,4.66,4.66,0,0,1,.85-1.07,11.9,11.9,0,0,1,1-.86,13.68,13.68,0,0,0,2.23-2.27c.12-.16.26-.32.37-.5a2.54,2.54,0,0,0,.22-.6,5.21,5.21,0,0,0,.17-1.3A2.77,2.77,0,0,0,98.53,87a1.39,1.39,0,0,1-.15-.63V85.7h-.63a3.58,3.58,0,0,1-.87-.11,4.93,4.93,0,0,0-1.23-.15,7.78,7.78,0,0,0-2.4.36,13.81,13.81,0,0,0-2.06.82c-.61.3-1.25.63-1.9,1a1.94,1.94,0,0,1-.76.31H88a.45.45,0,0,0-.14-.56,1.43,1.43,0,0,0-.57-.23,3.8,3.8,0,0,0-1.5-.11,4.33,4.33,0,0,0-1.9,1.35A12,12,0,0,1,80,90.88c.21.34.47.72.87.78a1.34,1.34,0,0,0,.65-.12l2.67-.93c.44,1.6-.57,3.31-.19,4.92.1.41.29.8.39,1.21a8.75,8.75,0,0,1-.1,3,10.51,10.51,0,0,0,.26,3.66,4.92,4.92,0,0,1,.27,2.94,7,7,0,0,0,2.89-1.93,1.51,1.51,0,0,0,.32-.47,1.89,1.89,0,0,0,0-1,11.9,11.9,0,0,1,0-4.29h0s.29.13.35.15a3.36,3.36,0,0,1,.42.22c.18.11.33.25.51.37l.25.16.5.33,1,.66.76.5a1.53,1.53,0,0,1,.54.5c.24.42.06,1,.26,1.4a2,2,0,0,0,.86.76A28.8,28.8,0,0,1,96.78,106.77Zm-6.23-10.7a4.57,4.57,0,0,1-1.59.26H87.9L87.71,96a3.61,3.61,0,0,1-.43-1.5,10.61,10.61,0,0,1-.1-1.19,7.51,7.51,0,0,1,.36-2.25,6.8,6.8,0,0,1,1-2,5.79,5.79,0,0,1,1.63-1.46,4.32,4.32,0,0,1,2.16-.56,2.91,2.91,0,0,1,2.12.79A2.5,2.5,0,0,1,95.11,89a.75.75,0,0,1,0,.26,4.6,4.6,0,0,0-.05.64,4.1,4.1,0,0,1,0,.86,2.29,2.29,0,0,1-.07.36,6.14,6.14,0,0,1-.59,1.34c-.25.46-.5.93-.79,1.37-.15.22-.3.44-.47.65a1.67,1.67,0,0,1-.5.49c-.28.15-.54.37-.81.54A6.76,6.76,0,0,1,90.55,96.07Zm7.84-1.77a.79.79,0,0,1,.48.28c.16.26,0,.58-.11.86s-.14.6.1.72c0,0,.1,0,.15,0a.24.24,0,0,1,.12.16,2.85,2.85,0,0,0,.16.44,1.17,1.17,0,0,0,.35.31,1.28,1.28,0,0,1,.25.15l.25.16.26.16a.38.38,0,0,1,.15.13l.08.15.16.23.34.48c.12.17.26.33.38.51a.47.47,0,0,1,.06.09.69.69,0,0,0,.1.19c.1.15.2.3.31.44.21.3.42.58.65.86a18.23,18.23,0,0,0,1.45,1.59l.73.67a3.46,3.46,0,0,1,.61.6c.32.43.43,1,.77,1.38.15.19.36.38.33.61s-.17.31-.17.48.2.32.37.42a1.72,1.72,0,0,0,.84.28,1,1,0,0,0,.49-.15l.23-.14.15,0a1.57,1.57,0,0,0,.42-.29,5.76,5.76,0,0,0,.77-.74,8.07,8.07,0,0,1,1.17-1.37l.37-.28.37-.33a9.28,9.28,0,0,0,.69-.71,9.37,9.37,0,0,0,.85-1.14,10.43,10.43,0,0,0,1.41-3.5,12,12,0,0,0,.2-3.71c-.08-.81-.18-1.55-.3-2.24s-.26-1.36-.44-2-.4-1.32-.65-2-.56-1.35-.92-2.09a9.74,9.74,0,0,0-.79-1.37c-.37-.54-.76-1.1-1.19-1.67l-1.22-1.67c-.39-.54-.7-1-.94-1.36l-.44-.51c-.24-.27-.5-.53-.77-.8a10.15,10.15,0,0,0-.78-.67c-.25-.17-.42-.22-.52-.14s-.14-.14-.28-.26L105,77.1c-.15-.13-.3-.25-.43-.38l-.27-.25-.39-.25-.31-.21h-.23a.68.68,0,0,0,.08.17.48.48,0,0,0,.16.16l.31.17.32.31.39.4.36.37c.1.1.15.17.15.2a3.92,3.92,0,0,1,.55.67.76.76,0,0,1,.06.16,1.53,1.53,0,0,0,.21.4l.6,1q.57,1,1.11,2c.36.66.7,1.33,1,2s.64,1.35.94,2c.2.45.38.91.57,1.36a3.78,3.78,0,0,1,.28,1c0,.21,0,.43,0,.64a3.26,3.26,0,0,0,.63,1.88,2.2,2.2,0,0,1,.17.25,1.46,1.46,0,0,1,.09.36,10.42,10.42,0,0,0,.62,2.06,2.71,2.71,0,0,1,.33,1.16c0,.21-.07.4-.09.61a3.22,3.22,0,0,0,.06.69,4.05,4.05,0,0,1,0,1.1,4.88,4.88,0,0,1-.12.55,1.08,1.08,0,0,0-.1.43,3.55,3.55,0,0,1,0,.73c0,.28,0,.55-.09.83a7.63,7.63,0,0,1-3.13,4.63c-.13.09-.3.19-.44.12a.43.43,0,0,1-.15-.15,8.36,8.36,0,0,0-.63-1.09,4.24,4.24,0,0,0-.62-.5,9.48,9.48,0,0,1-2-3c-.19-.33-.39-.64-.6-1s-.4-.64-.63-.93a2.22,2.22,0,0,1-.38-.86,4,4,0,0,1-.21-1.09,5.34,5.34,0,0,0,0-.69c-.1-.48-.47-.88-.57-1.37a2.94,2.94,0,0,0-.17-.78,1.44,1.44,0,0,0-.92-.59.66.66,0,0,0-.67.06l-.69.38-.24.13-.46.26a1,1,0,0,0-.17.11c-.18.12-.4.17-.58.3A.54.54,0,0,0,98.39,94.3Zm51.44,1.53v-.42s0-.12,0-.3-.06-.37-.1-.58-.07-.41-.11-.57a1.73,1.73,0,0,1-.06-.32,11.6,11.6,0,0,0-.62-1.49,6.54,6.54,0,0,0-.72-1.1,5.27,5.27,0,0,0-.91-.85,13.77,13.77,0,0,0-1.22-.79h-2.8a.89.89,0,0,1-.81.26,3.06,3.06,0,0,0-.77,0,1.49,1.49,0,0,0-.55.27.72.72,0,0,1-.62.11c-.38.25-.82.53-1.31.81a5.65,5.65,0,0,1-1.49.63,2.3,2.3,0,0,1,.27-.68,1.47,1.47,0,0,0,.18-.68H138a.6.6,0,0,0,.34-.27,2,2,0,0,0,.24-.49,4.61,4.61,0,0,0,.15-.53,1.91,1.91,0,0,0,.06-.37s0,0,0,0-.14.07-.34,0l-.28.13-.46.21a4,4,0,0,1-.45.19l-.28.11a4.89,4.89,0,0,1-.73.26.83.83,0,0,1-.21.06c-.09,0-.19,0-.28,0a2.07,2.07,0,0,0-.87.31,2.12,2.12,0,0,0-.39.34,2.16,2.16,0,0,0-.49.16c-.22.1-.42.25-.64.36a5.24,5.24,0,0,1-.7.24,1.47,1.47,0,0,0-.28.08L132,91a.84.84,0,0,1-.26.07,1.92,1.92,0,0,1-.24,0H130a5.53,5.53,0,0,1-.56,0l-.57,0h-.34a3.25,3.25,0,0,0-1-.22c-.39,0-.75,0-1.07,0v.26a18.34,18.34,0,0,1,1.22,2.67,9.05,9.05,0,0,1,.59,3.19s0,.12.06.3.08.36.13.55.09.36.13.53a2,2,0,0,1,.06.28,2.45,2.45,0,0,0,0,.77c.07.34,0,.58-.17.7l-2.07,1.44-.19-.27a6.61,6.61,0,0,1-1.72,1,5.67,5.67,0,0,1-1.91.32l-.68-.08L120,100.64v-.87c0-.45,0-.93,0-1.43a8,8,0,0,0,0-1.4,8.53,8.53,0,0,0,.28-.81c.14-.44.28-.92.43-1.44s.3-1,.44-1.53.24-.88.32-1.13a.84.84,0,0,1,.15-.25c.1-.13.2-.29.3-.45l.29-.45a1.15,1.15,0,0,0,.13-.25c.07-.2.07-.32,0-.36a1,1,0,0,0-.32,0,3.73,3.73,0,0,0-.61.07,3.44,3.44,0,0,0-.52.12l-1.52.75-1.06.54a1.17,1.17,0,0,1-.24.09.32.32,0,0,0-.24.14,3,3,0,0,0-.28.72c-.18.46-.67.83-.62,1.33l.67-.3a.94.94,0,0,1,.28-.15l.4-.1a4.21,4.21,0,0,1,.94-.15,15.42,15.42,0,0,0-1.56,2.36,11.83,11.83,0,0,0-.89,2.11,11.52,11.52,0,0,0-.4,1.83,14.26,14.26,0,0,0-.09,1.51,2.48,2.48,0,0,0,.22.83,8.66,8.66,0,0,0,.57,1.14,8,8,0,0,0,.72,1,1,1,0,0,0,.68.43l.3,0a.79.79,0,0,0,.34-.21.38.38,0,0,0,0,.48,1.79,1.79,0,0,0,.4.37,1.77,1.77,0,0,0,.53.27,1.72,1.72,0,0,0,.36.09,1,1,0,0,0,.3-.11l.3-.15a17.89,17.89,0,0,1,1.83-.87,11.07,11.07,0,0,0,1.72-.87l2.06-1.23a20.82,20.82,0,0,1,2.36-1.19v.38c0,.2,0,.41,0,.62s0,.42,0,.61,0,.31,0,.36v.22c0,.11,0,.23,0,.36s0,.27,0,.38a.37.37,0,0,0,.06.21,3.83,3.83,0,0,1,0,.68c0,.35,0,.58,0,.68l.07,8.59a1.16,1.16,0,0,0-.09.19.71.71,0,0,0-.06.19v.19a1.78,1.78,0,0,0,.08.45,1.71,1.71,0,0,1,.07.45.48.48,0,0,1-.07.29.52.52,0,0,1-.17.13,1.11,1.11,0,0,0-.19.09.32.32,0,0,0-.13.21c0,.12-.07.25-.11.37s-.09.15-.12.24-.11.29-.18.43a2.16,2.16,0,0,1-.27.38,2.74,2.74,0,0,1-.72.59,5.58,5.58,0,0,1-1.85.55c-4,.59-8.11-.35-11.92-1.75q-.81-.3-1.62-.63c-.71-.28-1.42-.58-2.13-.88l-2.12-.92c-.71-.3-1.42-.61-2.13-.9s-1.42-.58-2.14-.85l-.54-.2a3.31,3.31,0,0,0-.53-.18h-.16l-.11,0-.62-.19a10.28,10.28,0,0,0-2.8-.48,1.58,1.58,0,0,0-.8.16,2.06,2.06,0,0,0-.7,1.25,7.7,7.7,0,0,1-2.91,4,2,2,0,0,0,2.2-.15c.65-.44,1.14-1.07,1.77-1.55a6.26,6.26,0,0,1,5.75-.51,32.5,32.5,0,0,1,5.29,2.84,28.74,28.74,0,0,0,10.62,3.54,15.79,15.79,0,0,0,6.09-.25,9.2,9.2,0,0,0,3.35-1.68,7.48,7.48,0,0,0,1.1-1.08c.16-.19.28-.43.45-.62s.42-.43.61-.66A5.38,5.38,0,0,0,132,116a10,10,0,0,0,.39-1.38,13.73,13.73,0,0,0,.23-1.43c0-.48.09-.92.11-1.32a4.21,4.21,0,0,1,.06-.44c0-.24.07-.39.09-.47v-4.59c0-1.41,0-2.77-.15-4.1s-.24-2.67-.41-4.06v-.49l-.38.23a8.87,8.87,0,0,0,.06-1.21,6.56,6.56,0,0,0-.14-1.06c-.07-.35-.17-.73-.28-1.13s-.26-.87-.43-1.4c-.05-.12,0-.21.17-.26a5.38,5.38,0,0,1,.54-.13l.61-.13a.92.92,0,0,0,.41-.19,2,2,0,0,0-.14-.23,2.51,2.51,0,0,0,.66-.32,1.94,1.94,0,0,1,.29-.21h.06c.34-.05.57-.34.83-.53a2.82,2.82,0,0,1,.36-.24,2,2,0,0,1,.54-.06h.66c.19,0,.25.07.2.17a1.9,1.9,0,0,1-.43.57l-.57.53-.51.49a.62.62,0,0,0-.22.42,2,2,0,0,1-.06.62,1,1,0,0,1-.11.21.86.86,0,0,0-.12.22,2.25,2.25,0,0,0,0,.68c-.06,0-.11.18-.17.46s-.13.58-.19.92a9.43,9.43,0,0,0-.15,1,6.07,6.07,0,0,0-.06.61,1.42,1.42,0,0,0,.07.26,1.69,1.69,0,0,1,.08.27.68.68,0,0,1-.08.17.44.44,0,0,0-.07.17v.07a9.44,9.44,0,0,0,.07,1.15,4.13,4.13,0,0,0,.46,1.36,8.28,8.28,0,0,0,1.11,1.59,11.92,11.92,0,0,0,2.1,1.83,1.43,1.43,0,0,0,.28.19,1.85,1.85,0,0,0,.42.17,1.22,1.22,0,0,0,.35.06.27.27,0,0,0,.27-.15,5,5,0,0,1-.51-1.06c-.19-.51-.37-1-.55-1.57s-.34-1-.49-1.47-.28-.69-.38-.74l.31-.19a4.39,4.39,0,0,1-.14-.62c0-.14,0-.32,0-.55s0-.57,0-1.11,0-1.11.08-1.7.09-1.15.15-1.66a2.91,2.91,0,0,1,.28-1.08,3.3,3.3,0,0,1,.36-.38c.19-.17.39-.34.61-.51l.6-.45.4-.28h.15l.24-.08a1,1,0,0,1,.29-.07,1.16,1.16,0,0,1,.41,0l.64,0,.65.06.41,0a8.17,8.17,0,0,1,1.93,1.06,12.14,12.14,0,0,1,1.7,1.47,2.08,2.08,0,0,0,0,.68c.05.33.11.67.17,1s.14.67.21.94.14.43.19.46v1.51a3.89,3.89,0,0,0,0,.68,2.26,2.26,0,0,0,.09.41,2.57,2.57,0,0,1,.08.38,4.14,4.14,0,0,1,0,.57,17.64,17.64,0,0,0-.27,2.2A8.5,8.5,0,0,1,146,105l-.59,1.48c-.24.6-.48,1.22-.73,1.87s-.51,1.27-.76,1.88-.48,1.13-.68,1.53c0,0-.15.27-.37.65s-.48.78-.74,1.22-.61,1-1,1.76a19.32,19.32,0,0,1-1.62,2.49c-.51.63-1,1.23-1.4,1.81a.16.16,0,0,0,0,.12c.5-.51,1-1,1.47-1.59s.95-1.11,1.4-1.66a17.12,17.12,0,0,0,1.25-1.85c.55-.91,1.16-2,1.81-3.15s1.33-2.49,2-3.87,1.34-2.72,1.91-4,1-2.45,1.39-3.51a8,8,0,0,0,.55-2.42V96.13A.88.88,0,0,1,149.83,95.83Z" transform="translate(-1.45 -0.41)"/></svg>