<svg id="Layer_1" data-name="Layer 1" xmlns="http://www.w3.org/2000/svg" viewBox="0 0 588.57 30.35">
    <path d="M105.58,3.81l-8.91,8.91-2.1,2.1,2.1,2.1,8.91,8.91,2.1-2.1-8.91-8.91,8.91-8.91Zm-2.17-2.06L101.3-.36,88.23,12.72,75.16-.36l-2.1,2.11L86.13,14.82,73.06,27.89l2.1,2.1L88.23,16.92,101.3,30l2.11-2.1L90.33,14.82Zm1.68,15.17,2.11-2.1-2.11-2.1-2.1,2.1Zm17.28,0,2.1-2.1-2.1-2.1-2.1,2.1ZM82,14.82l-2.1-2.1L71,3.81l-2.1,2.1,8.9,8.91-8.9,8.91,2.1,2.1,8.91-8.91Zm-10.53-2.1-2.1,2.1,2.1,2.1,2.1-2.1ZM174.32,3.81l-8.9,8.91-2.11,2.1,2.11,2.1,8.9,8.91,2.11-2.1-8.91-8.91,8.91-8.91Zm-2.17-2.06-2.1-2.11L157,12.72,143.91-.36,141.8,1.75l13.08,13.07L141.8,27.89l2.11,2.1L157,16.92,170.05,30l2.1-2.1L159.08,14.82Zm1.69,15.17,2.1-2.1-2.1-2.1-2.1,2.1Zm-23.05-2.1-2.11-2.1-8.91-8.91-2.1,2.1,8.91,8.91-8.91,8.91,2.1,2.1,8.91-8.91Zm-10.53-2.1-2.1,2.1,2.1,2.1,2.1-2.1ZM122.31,3.81h0l-8.91,8.91-2.1,2.1,2.1,2.1,8.91,8.91h0l8.91-8.91,2.1-2.1-2.1-2.1Zm0,17.82-6.81-6.81L122.3,8l6.82,6.81ZM36.82,3.81l-8.91,8.91-2.1,2.1,2.1,2.1,8.91,8.91,2.1-2.1L30,14.82l8.91-8.91ZM34.65,1.75,32.55-.36,19.48,12.72,6.4-.36,4.3,1.75,17.37,14.82,4.3,27.89,6.4,30,19.48,16.92,32.55,30l2.1-2.1L21.58,14.82Zm1.69,15.17,2.1-2.1-2.1-2.1-2.11,2.1Zm17.28,0,2.1-2.1-2.1-2.1-2.11,2.1Zm-40.34-2.1-2.1-2.1L2.27,3.81.17,5.91l8.91,8.91L.17,23.73l2.1,2.1,8.91-8.91ZM2.76,12.72.65,14.82l2.11,2.1,2.1-2.1ZM53.55,3.81h0l-8.91,8.91-2.1,2.1,2.1,2.1,8.91,8.91h0l8.91-8.91,2.1-2.1-2.1-2.1Zm0,17.82-6.81-6.81L53.55,8l6.81,6.81ZM243.09,3.81l-8.91,8.91-2.1,2.1,2.1,2.1,8.91,8.91,2.1-2.1-8.91-8.91,8.91-8.91Zm-2.17-2.06-2.1-2.11L225.74,12.72,212.67-.36l-2.1,2.11,13.07,13.07L210.57,27.89l2.1,2.1,13.07-13.07L238.82,30l2.1-2.1L227.85,14.82Zm1.69,15.17,2.1-2.1-2.1-2.1-2.11,2.1Zm17.28,0,2.1-2.1-2.1-2.1-2.11,2.1Zm-40.34-2.1-2.1-2.1-8.91-8.91-2.1,2.1,8.91,8.91-8.91,8.91,2.1,2.1,8.91-8.91ZM209,12.72l-2.1,2.1,2.1,2.1,2.11-2.1ZM311.84,3.81l-8.91,8.91-2.1,2.1,2.1,2.1,8.91,8.91,2.1-2.1L305,14.82l8.91-8.91Zm-2.17-2.06L307.56-.36,294.49,12.72,281.42-.36l-2.1,2.11,13.07,13.07L279.32,27.89l2.1,2.1,13.07-13.07L307.56,30l2.11-2.1L296.59,14.82Zm1.68,15.17,2.1-2.1-2.1-2.1-2.1,2.1Zm-23.05-2.1-2.1-2.1-8.91-8.91-2.11,2.1,8.91,8.91-8.91,8.91,2.11,2.1,8.91-8.91Zm-10.53-2.1-2.1,2.1,2.1,2.1,2.1-2.1ZM259.82,3.81h0l-8.91,8.91-2.1,2.1,2.1,2.1,8.91,8.91h0l8.91-8.91,2.1-2.1-2.1-2.1Zm0,17.82L253,14.82,259.82,8l6.81,6.81Zm-68.69-4.71,2.1-2.1-2.1-2.1-2.1,2.1Zm-.06-13.11h0l-8.91,8.91L180,14.82l2.11,2.1,8.91,8.91h0l8.9-8.91,2.11-2.1L200,12.72Zm0,17.82-6.81-6.81L191.06,8l6.81,6.81ZM380.38,3.81l-8.91,8.91-2.1,2.1,2.1,2.1,8.91,8.91,2.1-2.1-8.91-8.91,8.91-8.91Zm-2.17-2.06L376.1-.36,363,12.72,350-.36l-2.1,2.11,13.07,13.07L347.86,27.89,350,30,363,16.92,376.1,30l2.11-2.1L365.13,14.82Zm1.68,15.17,2.11-2.1-2.11-2.1-2.1,2.1Zm17.28,0,2.11-2.1-2.11-2.1-2.1,2.1Zm-40.33-2.1-2.1-2.1-8.91-8.91-2.1,2.1,8.91,8.91-8.91,8.91,2.1,2.1,8.91-8.91Zm-10.53-2.1-2.1,2.1,2.1,2.1,2.1-2.1ZM449.13,3.81l-8.91,8.91-2.11,2.1,2.11,2.1,8.91,8.91,2.1-2.1-8.91-8.91,8.91-8.91ZM447,1.75l-2.1-2.11L431.78,12.72,418.71-.36,416.6,1.75l13.08,13.07L416.6,27.89l2.11,2.1,13.07-13.07L444.85,30l2.1-2.1L433.88,14.82Zm1.69,15.17,2.1-2.1-2.1-2.1-2.1,2.1Zm-23.05-2.1-2.11-2.1-8.9-8.91-2.11,2.1,8.91,8.91-8.91,8.91,2.11,2.1,8.9-8.91Zm-10.53-2.1-2.1,2.1,2.1,2.1,2.1-2.1ZM397.11,3.81h0l-8.91,8.91-2.1,2.1,2.1,2.1,8.91,8.91h0L406,16.92l2.1-2.1-2.1-2.1Zm0,17.82-6.82-6.81L397.11,8l6.81,6.81Zm-68.69-4.71,2.1-2.1-2.1-2.1-2.1,2.1Zm-.07-13.11h0l-8.9,8.91-2.11,2.1,2.11,2.1,8.9,8.91h0l8.91-8.91,2.11-2.1-2.11-2.1Zm0,17.82-6.81-6.81L328.35,8l6.81,6.81ZM517.89,3.81,509,12.72l-2.1,2.1,2.1,2.1,8.91,8.91,2.1-2.1-8.91-8.91L520,5.91Zm-2.17-2.06-2.1-2.11L500.54,12.72,487.47-.36l-2.1,2.11,13.07,13.07L485.37,27.89l2.1,2.1,13.07-13.07L513.62,30l2.1-2.1L502.65,14.82Zm1.69,15.17,2.1-2.1-2.1-2.1-2.11,2.1Zm17.28,0,2.1-2.1-2.1-2.1-2.11,2.1Zm-40.34-2.1-2.1-2.1-8.91-8.91-2.1,2.1,8.91,8.91-8.91,8.91,2.1,2.1,8.91-8.91Zm-10.52-2.1-2.11,2.1,2.11,2.1,2.1-2.1ZM588.74,5.91l-2.1-2.1-8.91,8.91-2.1,2.1,2.1,2.1,8.91,8.91,2.1-2.1-8.91-8.91Zm-4.27-4.16L582.36-.36,569.29,12.72,556.22-.36l-2.1,2.11,13.07,13.07L554.12,27.89l2.1,2.1,13.07-13.07L582.36,30l2.11-2.1L571.39,14.82Zm1.68,15.17,2.11-2.1-2.11-2.1-2.1,2.1Zm-23-2.1-2.1-2.1-8.91-8.91L550,5.91l8.91,8.91L550,23.73l2.1,2.1L561,16.92Zm-10.53-2.1-2.1,2.1,2.1,2.1,2.1-2.1Zm-18-8.91h0l-8.91,8.91-2.1,2.1,2.1,2.1,8.91,8.91h0l8.91-8.91,2.1-2.1-2.1-2.1Zm0,17.82-6.81-6.81L534.62,8l6.81,6.81Zm-68.69-4.71,2.1-2.1-2.1-2.1-2.1,2.1Zm-.06-13.11h0L457,12.72l-2.1,2.1,2.1,2.1,8.91,8.91h0l8.91-8.91,2.1-2.1-2.1-2.1Zm0,17.82-6.81-6.81L465.86,8l6.81,6.81Z" transform="translate(-0.17 0.36)"/>
</svg>